<svg xmlns="http://www.w3.org/2000/svg" xml:space="preserve" style="fill-rule:evenodd;clip-rule:evenodd;stroke-linejoin:round;stroke-miterlimit:2" viewBox="0 0 9934 7017"><path d="m1944.47 3492.78-338.521 408.33-415.046 947.887-155.954 771.167 332.358-605.542 173.063-130.167 129.958-303.916 136.533-525.43 137.609-562.329Z" style="fill:#83827a;fill-rule:nonzero"/><path d="M1782.58 6052.33c-48.304-1.458-357.117-183.458-357.117-183.458l-56.712-531.417-1.446-322.833 173.063-130.167 242.212 1167.88Z" style="fill:#4c4652;fill-rule:nonzero"/><path d="m1782.58 6052.33 53.092-158.458 108.796-2401.09-274.142 1087.76-129.958 303.916 242.212 1167.88Z" style="fill:#3c3544;fill-rule:nonzero"/><path d="m1034.63 5598.12 390.829 270.75-58.158-854.25-332.671 583.5Z" style="fill:#403c44;fill-rule:nonzero"/><path d="m1080.75 7016.67 641.271-210.459 283.958-767.125-152.166-736.291-362.23-255.042-939.212 126.125L192.1 5583.92-.004 5678.378v1338.29h1080.75Z" style="fill:#4c4652;fill-rule:nonzero"/><path d="m0 5917.38 450.929-258.917-222.258-206.375-196.292 16.084L0 5494.505v422.875Z" style="fill:#8d8e7c;fill-rule:nonzero"/><path d="m704.171 5189.67-253.242 468.791-222.258-206.375 14.475-121.541L447 5059.753l257.171 129.917Z" style="fill:#7a7677;fill-rule:nonzero"/><path d="m1491.59 5047.75-787.416 141.917-257.171-129.917 100.771-96.625 502.562-73.167 441.254 157.792Z" style="fill:#8d8e7c;fill-rule:nonzero"/><path d="m1548.55 7016.67 183.204-35.084-11.575-706.958-483.563-472.208-785.683-143.959L.004 5917.378v247.208l340.004 852.084h1208.54Z" style="fill:#413c47;fill-rule:nonzero"/><path d="M1366.35 7016.67h788.392l-16.621-893.917-245.038-690.042-294 179.209-185.971 429.583 68.446 413.917s-208.692 28.875-198.575 76.25c10.129 47.375-5.958 199.875-5.958 199.875l89.325 285.125Z" style="fill:#3c3544;fill-rule:nonzero"/><path d="M2138.12 6122.75c-53.625-28.083-285.288 81.125-285.288 81.125l-253.75-591.958 294-179.209 245.038 690.042Z" style="fill:#83827a;fill-rule:nonzero"/><path d="m1852.83 6203.88-117.566 112.75-322.155-275.125 185.971-429.583 253.75 591.958Z" style="fill:#7a7677;fill-rule:nonzero"/><path d="m1735.26 6316.62-165.646 266.458-88.063-127.666-68.446-413.917 322.155 275.125ZM1282.98 6531.67l286.638 51.416-88.063-127.666-180.671 19.541-17.904 56.709Z" style="fill:#8d8e7c;fill-rule:nonzero"/><path d="m1569.62 6583.08 579.895 250.667-296.683-629.875-117.566 112.75-165.646 266.458Z" style="fill:#4c4652;fill-rule:nonzero"/><path d="m2149.51 6833.75-11.395-711-285.288 81.125 296.683 629.875Z" style="fill:#433e49;fill-rule:nonzero"/><path d="m1769.53 7016.67-199.916-433.584 99.275 433.584h100.641Z" style="fill:#2f2a35;fill-rule:nonzero"/><path d="m6727.12 7016.67 118.625-58.625-534.292-1115.46-534.291-278.916-677.667 239.083-404.042 743.667 150.5 470.25h1881.17Z" style="fill:#403c44;fill-rule:nonzero"/><path d="m6727.12 7016.67 118.625-58.625-534.292-1115.46-534.291 504.667 519.208 669.417h430.75Z" style="fill:#83827a;fill-rule:nonzero"/><path d="m5777.17 6347.25-417.042-385.167 417.042-398.416 534.291 278.916-534.291 504.667Z" style="fill:#908e82;fill-rule:nonzero"/><path d="m5360.12 5962.08-599.458 185.917 338.833-345.25 677.667-239.083-417.042 398.416ZM1960.12 2124.04s312.766 29.866 537.567 119.479c0 0 263.92 308.779 459.399 378.5 0 0 175.921 129.504 410.505 268.933 0 0 469.137 308.729 527.779 428.258l224.829 298.813-1847.31 9.925-58.641-278.858-162.434-738.35-91.691-486.7Z" style="fill:#8d8e7c;fill-rule:nonzero"/><path d="M2360.86 3807.27c29.33 0 2218.72 99.6 2218.72 99.6l-460.779-290.392-1866.19-15.175 108.241 205.967Z" style="fill:#908e82;fill-rule:nonzero"/><path d="m2351.1 4952.62 234.542 89.667 156.421 398.375 703.7-109.542-9.767 388.417 1075.17 577.666 410.499-1254.92-343.458-1141.97-2234.34-113.029 7.233 1165.33Z" style="fill:#83827a;fill-rule:nonzero"/><path d="m5136.67 6835.04-625.5-537.834 410.499-1254.92 351.834 956.083-136.833 836.667Z" style="fill:#7a7677;fill-rule:nonzero"/><path d="m1823.28 2313.29 19.55-149.404 117.288-39.845 312.766 1503.91-439.808 298.812-9.796-1613.47Z" style="fill:#4c4652;fill-rule:nonzero"/><path d="m1794 4056.27 566.862-249.004-87.971-179.321-439.808 298.812L1794 4056.27Z" style="fill:#45404c;fill-rule:nonzero"/><path d="M2028.56 5540.25c9.767-29.875 322.546-587.625 322.546-587.625l9.754-1145.36-566.862 249.004 9.746 1085.6 224.816 398.375Z" style="fill:#4c4652;fill-rule:nonzero"/><path d="M2282.65 7016.67h1374.46L2546.55 5958.55l-195.458-1005.92-322.546 587.625 254.096 926.25v550.167Z" style="fill:#413a49;fill-rule:nonzero"/><path d="M2512.62 5955.38c-8.1 16.542 847.9 796.083 1139.92 1061.29h1496.88c-5.667-84.125-12.75-181.625-12.75-181.625l-625.5-537.834L3436 5719.545l-693.933-278.875-156.421-398.375-234.542-89.667s171.296 982.875 161.513 1002.75Z" style="fill:#4c4652;fill-rule:nonzero"/><path d="m2742.07 5440.67 703.7-109.542-7.846 411.833-695.854-302.291Z" style="fill:#433e49;fill-rule:nonzero"/><path d="m2529.78 6621.04 488.708 199.166 828.859 196.459h661.324l-415.074-335.875-1524.72-637.459-1231.53-219.125 977.387 517.917 215.042 278.917Z" style="fill:#83827a;fill-rule:nonzero"/><path d="m933.729 7016.67 1596.05-395.625-215.042-278.917-512.375 18.333-840.55 119.5s-198.829 376.25-257.546 536.709h229.467Z" style="fill:#4c4652;fill-rule:nonzero"/><path d="m3876.38 7016.67-857.896-196.459-488.708-199.166-1596.05 395.625h2942.65Z" style="fill:#3c3544;fill-rule:nonzero"/><path d="m1372.31 5822.62-410.505 657.333 1352.92-137.833-942.42-519.5Z" style="fill:#403c44;fill-rule:nonzero"/><path d="m2314.73 6342.12 254.142-298.792-1231.53-219.125 977.387 517.917Z" style="fill:#8d8e7c;fill-rule:nonzero"/><path d="m1011.12 7016.67 475.787-112.75 354.521-144.542 156.021-202.25 709.017-375.792-893.425 158.959-1106.07 462.458-264.363 213.917h568.513Z" style="fill:#83827a;fill-rule:nonzero"/><path d="M3154.06 7016.67c-52.462-127.375-175.175-359.584-175.175-359.584l-609.783-86.75-371.646-13.208-156.025 202.25 1037.92 257.292h274.712Z" style="fill:#4c4652;fill-rule:nonzero"/><path d="m2879.35 7016.67-1037.92-257.292-354.521 144.542-492.4 112.75h1884.84Z" style="fill:#3c3544;fill-rule:nonzero"/><path d="m2681.11 6180.21 297.775 476.875-981.429-99.958 683.654-376.917Z" style="fill:#403c44;fill-rule:nonzero"/><path d="m4057.34 7016.67 526.08-1506.17-191.417-1014.33-178.625-364.117-816.754-325.075-102.071 39.025-114.842 377.083-484.966 949.334-484.93 416.083-178.649 1118.38 196.712 309.792h1829.46Z" style="fill:#4c4652;fill-rule:nonzero"/><path d="m3294.55 3846-510.483 871.25-216.913 260.083-25.525 234.084 229.696 273.083 370.092-624.167 153.133-1014.33Z" style="fill:#8d8e7c;fill-rule:nonzero"/><path d="m2222.59 5770.58 548.737-286.083-229.696-273.083-140.392 13-319.033 234.083 140.384 312.083Z" style="fill:#7a7677;fill-rule:nonzero"/><path d="m2031.16 6706.88 191.425-936.292-140.384-312.083-114.85 117.042-102.121 598.208 165.93 533.125Z" style="fill:#8d8e7c;fill-rule:nonzero"/><path d="M3429.15 7016.67h829.846l324.417-1506.17-1442-650.167-370.092 624.167 137.788 944.417 520.041 587.75Z" style="fill:#413c47;fill-rule:nonzero"/><path d="m4824.58 7016.67-156.416-257.834-690.842-248.5s-176.108 13.792-230.317 0c-54.162-13.791-94.82 234.667-94.82 234.667l-474.134-96.583-501.191 207.041-101.255 161.209h2248.97Z" style="fill:#3c3544;fill-rule:nonzero"/><path d="m3010.97 7016.67-334.104-161.209-101.255 161.209h435.359Z" style="fill:#83827a;fill-rule:nonzero"/><path d="m3462.71 7016.67-284.654-368.25-501.191 207.041 334.104 161.209h451.741Z" style="fill:#7a7677;fill-rule:nonzero"/><path d="m3527.67 7016.67 268.337-161.834-143.812-109.833-474.138-96.583 284.654 368.25h64.959ZM3747.01 6510.33l48.996 344.5-143.816-109.833 28.945-215.292 65.875-19.375Z" style="fill:#8d8e7c;fill-rule:nonzero"/><path d="m3857.76 7016.67-61.758-161.834-268.337 161.834h330.095Z" style="fill:#4c4652;fill-rule:nonzero"/><path d="m4394.04 7016.67-598.037-161.834 312.959 161.834h285.078Z" style="fill:#2f2a35;fill-rule:nonzero"/><path d="m3586.63 7016.67 10.784-42.709-289.804-582.375-273.675-533.208-104.655-57.417-354.175-664.416-370.27-262.459-96.609 98.459h-177.079L1512.53 5210.42l-104.612 155.833-563.429 418.333-72.463 795.625-102.283 436.459h2916.89Z" style="fill:#4c4652;fill-rule:nonzero"/><path d="M2051.88 5440.08c-24.121 0-643.958-73.833-643.958-73.833l-112.675 73.833 297.825 82 249.525 377.334 249.533 598.791-40.25-1058.12ZM1552.83 5177.58l330.021 49.25 265.633 57.334H1737.98l-289.796 16.458 40.221-86.083 64.425-36.959ZM949.492 7016.67l27.762-83.709s17.029 45.834 32.367 83.709h26.879c7.887-115.709 29.3-399.5 29.3-399.5l-104.654-791.625-116.654-40.959-72.463 795.625-107.096 436.459h284.559Z" style="fill:#8d8e7c;fill-rule:nonzero"/><path d="m3586.63 7016.67 10.784-42.709-21.463 42.709h10.679Z" style="fill:#403c44;fill-rule:nonzero"/><path d="m1295.25 5440.08-450.754 344.5 116.654 40.959 334.1-385.459Z" style="fill:#a8a896;fill-rule:nonzero"/><path d="m2758.74 7016.67-42.587-47.875-1042.52-51.417-79.004 99.292h1164.11Z" style="fill:#4c4652;fill-rule:nonzero"/><path d="m1670.69 7016.67 2.941-99.292-79.004 99.292h76.063Z" style="fill:#a8a896;fill-rule:nonzero"/><path d="m2752.95 7016.67-36.796-47.875-1042.52-51.417-2.941 99.292h1082.25Z" style="fill:#45404c;fill-rule:nonzero"/><path d="m6303.75 6649.04-1002.88 41.541-880.583-232.625-375.075-307.416-309.825-556.667-16.325-116.333 2413.43 589.916 318 49.834 48.917 398.791-195.667 132.959Z" style="fill:#3c3544;fill-rule:nonzero"/><path d="M6409.75 6217c-32.625-8.292-546.333 41.542-546.333 41.542L5203 6175.458s-774.584-191.125-799-207.75c-24.5-16.583-684.933-490.166-684.933-490.166l244.604-83.084 888.745 124.625 1377.92 456.959 220.167 141.25-40.75 99.708Z" style="fill:#83827a;fill-rule:nonzero"/><path d="M3719.07 5477.54 4779 5618.748l73.416-99.667-888.745-124.625-244.604 83.084Z" style="fill:#8d8e7c;fill-rule:nonzero"/><path d="m4779 5618.75 1059.96 639.792L6409.752 6217l40.75-99.708-220.167-141.25-1377.92-456.959-73.416 99.667Z" style="fill:#7a7677;fill-rule:nonzero"/><path d="m5300.88 6690.58-130.5-523.416 693.042 91.375 546.333-41.542 40.75-99.708 48.917 398.791-195.667 132.959-1002.88 41.541Z" style="fill:#322d3a;fill-rule:nonzero"/><path d="m4416.21 6457.96-12.208-490.25-684.933-490.166v83.041l301.679 589.917 395.462 307.458Z" style="fill:#4b4454;fill-rule:nonzero"/><path d="m4615.96 6557.62-228.291-307.417-171.25-66.458-163.046 49.833-138.617 99.75 32.613 33.209 32.608 157.875 187.525 33.208 269.083 91.417 179.375-91.417Z" style="fill:#4b4454;fill-rule:nonzero"/><path d="m4304.08 6356.17-356.716 10.375-32.613-33.209 138.617-99.75 67.25-20.75 287.421 62.292-103.959 81.042Z" style="fill:#8d8e7c;fill-rule:nonzero"/><path d="m3979.97 6524.42-48.912-24.917-16.309-166.167 32.613 33.209 32.608 157.875Z" style="fill:#5b5466;fill-rule:nonzero"/><path d="m4304.08 6356.17 132.5 292.875 179.375-91.417-207.916-282.5-103.959 81.042ZM4099.66 7016.67l3.384-13.417-103.009-207-97.258-189.5-37.204-20.417-125.896-236.166-131.621-93.25-34.325 35h-62.937l-148.792 84.541-37.192 55.375-200.271 148.667-25.745 282.792-35.946 153.375h1036.81Z" style="fill:#322d3a;fill-rule:nonzero"/><path d="M3553.7 6458.08c-8.579 0-228.896-26.25-228.896-26.25l-40.041 26.25 105.85 29.125 88.712 134.125 88.671 212.792-14.296-376.042ZM3376.32 6364.79l117.295 17.458 94.434 20.417h-145.934l-102.987 5.875 14.296-30.667 22.896-13.083Z" style="fill:#8d8e7c;fill-rule:nonzero"/><path d="m3162.45 7016.67 9.279-27.959s5.538 14.875 10.796 27.959h10.4c2.891-42.167 10.279-140.25 10.279-140.25l-37.183-281.292-41.48-14.625-25.745 282.792-37.625 153.375h101.279Z" style="fill:#83827a;fill-rule:nonzero"/><path d="m4099.66 7016.67 3.384-13.417-6.73 13.417h3.346Z" style="fill:#3c3544;fill-rule:nonzero"/><path d="m5207.12 7016.67 157.167-197.667-32.959-142.75-790.583 340.417h666.375Z" style="fill:#322d3a;fill-rule:nonzero"/><path d="m3560.93 7016.67-124.471-138.917-19.02 138.917h143.491Z" style="fill:#3c3544;fill-rule:nonzero"/><path d="m4540.75 7016.67 790.583-340.417L5216 6592.295l-922.708-268.625-181.263 16.791-230.687 201.5-233.921 150.375-210.959 185.417 116.855 138.917h987.433Z" style="fill:#8d8e7c;fill-rule:nonzero"/><path d="m3977.48 6452.96 517.975 89h-614.116l96.141-89Z" style="fill:#322d3a;fill-rule:nonzero"/><path d="m4112.02 6340.46 309.433 101.709 74 99.791-517.975-89 134.542-112.5Z" style="fill:#83827a;fill-rule:nonzero"/><path d="m4677.17 7016.67 50.083-102.084 27.375-223.041-124.084 325.125h46.626Z" style="fill:#8d8e7c;fill-rule:nonzero"/><path d="M7532.67 7016.67v-296.209l-562.584 296.209h562.584ZM4855.46 7016.67l-128.209-102.084-50.083 102.084h178.292Z" style="fill:#322d3a;fill-rule:nonzero"/><path d="M6951.33 7016.67c199-108.792 448.625-242.959 581.334-305.375v-63.625l-602.625-221.042-1313.46-195.208-861.958 460.125-27.375 223.041 128.209 102.084h2095.87Z" style="fill:#83827a;fill-rule:nonzero"/><path d="m4855.46 7016.67-128.209-102.084-50.083 102.084h178.292Z" style="fill:#7a7677;fill-rule:nonzero"/><path d="M1606.15 7011.21c-.025 1.834-.084 3.625-.125 5.459h18.458c.521-4 1.009-8 1.571-12 4.196-29.709 9.487-59.292 15.438-88.709 4.433-21.958 9.775-43.833 16.383-65.208 7.917-25.625 17.879-50.583 26.479-76 10.008-29.542 22.983-58.667 28.621-89.042 2.1-11.333 4.721-22.583 7.621-33.791 82.021-14.292 129.041-121.292 136.471-196.417.274-2.708-3.709-3.583-4.888-1.333-19.779 36.541-29.85 77.708-51.4 113.458-19.8 32.917-46.029 54.75-77.442 73.917 15.367-56.417 36.15-111.75 33.896-171.459-1.454-38-4.592-75.958-7.608-113.916-.517-6.25-4.354-12.292-11.229-17.792-.042 69.625-.05 139.25-.1 208.917-5.009.833-3.78.625-8.805 1.5-2.733-7.584-5.47-15.167-8.204-22.75-4.008.5-3.333.416-7.329.875-1.2 12.583-3.229 25.166-3.296 37.708-.408 71.917-12.291 141.667-39.796 208.5-1.216 3-4.058 5.292-13.762 7.333.058-22.416-.992-44.875.404-67.166 3.454-56.167 8.3-112.209 11.754-168.375.505-8.167-3.5-16.625-7.112-32.209a583397.42 583397.42 0 0 0-17.404 189.625l-9.738.875c-3.591-27.875-9.171-55.666-10.192-83.625-1.037-29.333 1.221-58.916 3.951-88.25 2.65-28.625 7.766-57.041 11.783-85.583-2.821-.708-5.65-1.458-8.479-2.167-3.263 8.792-7.846 17.375-9.596 26.459-13.171 68.625-19.988 137.666-6.663 206.916 6.125 31.917 20.354 62.917 22.234 94.834 2.316 39.083 1.058 80.166-8.755 117.791-10.508 40.334-22.62 79-23.141 121.625ZM1810.79 7016.67h87.526c30.733-13.667 59.166-34.209 80.579-60.125 3.708-4.459-.854-10.459-5.996-7.959-40.754 19.917-72.596 51.542-118.121 61.834-14.971 3.375-29.571 4.75-43.988 6.25ZM1753.36 7016.67h26.133c2.762-3.167 5.475-6.459 8.05-9.875 40-53.459 68.25-122.834 73.337-190.042.267-3.625-4.591-3.583-5.679-.792-27.308 68.959-48.258 138-94.125 192.375 10.209-29.333 12.121-56.916 12.179-89.041.08-40 7.638-79.292 7.184-118.959-.042-4.791-6.621-6.833-8.984-2.5-35.808 65.667-6.158 148.084-18.095 218.834ZM1351.82 6695.83c23.587 31.667 49.233 66.792 79.046 92.709 5.37 28.833 14.941 57.708 21.846 86.291 11.47 47.5 27.462 94.334 38.083 141.834h50c.283-28.084.383-56.167.362-84.25-.021-89.25 2.263-178.125 16.325-266.667 2.534-15.875 1.18-33.042-1.791-49.042-12.092-65.541-26.25-130.708-37.925-196.291-2.925-16.459-2.571-34.75 1.587-50.834 15.134-58.791 11.8-114.833-18.229-168.666-8.804-15.792-16.208-32.334-24.279-48.542-2.463.208-4.929.417-7.413.583 3.138 13.125 5.434 26.542 9.567 39.334 10.579 32.708 26.183 64.458 31.704 97.875 4.275 25.958-3.621 53.833-6.879 89.125a74698.67 74698.67 0 0 0-42.633-69.167c-40.488.792-42.546-37.292-63.163-52.125-3.7 3.5-2.821 2.708-6.533 6.208 11.141 15.667 19.741 34.334 34.187 46.042 43.88 35.583 67.496 80.375 76.909 134.833 10.062 58.459 23.537 116.334 34.62 174.667a136.129 136.129 0 0 1 1.63 40.375c-5.838 54.083-14.296 107.917-19.125 162.042-4.492 50.125-5.5 100.5-8.213 150.75-.366 6.583-1.787 13.083-7.917 20.291-12.366-46.125-23.22-92.75-37.466-138.291-20.017-64-21.946-128.917-21.104-195.209.72-61.458-27.271-116.541-51.371-171.666l-9.471 1.916c2.808 14.084 3.117 29.292 8.867 42.125 30.712 68.417 35.241 139.459 33.679 213.459-.079 4.125.129 8.25.337 12.416-17.229-22.666-37.621-43.625-55.112-65.125-31.017-38.083-54.638-76.916-70.496-123.833-1.029-3.042-5.771-2.667-5.692.792.775 41.5 19.15 75.25 42.48 107.625-17.463-7.959-34.909-15.667-51.046-26.792-25.475-17.583-47.404-38.625-69.892-59.792-1.546-1.458-3.7.334-2.813 2.209 24.33 49.916 81.63 95.041 137.334 102.791ZM1443.89 7016.67c-.45-17.042-2.638-34.084-6.455-49.875-.812-3.334-6.304-3.625-6.929 0-2.845 16.916-3.92 33.458-5.087 49.875h18.471ZM1367.53 7016.67c-.666-3.084-1.358-6.167-2.137-9.25-1.254-5-7.558-3.25-8.113 1.083-.337 2.708-.595 5.458-.85 8.167h11.1ZM1190.32 6748c-7.58-20.917-14.317-51.667-21.896-72.583-10.754 34.333 1.296 65.166 14.583 93.958 14.279 31 36.075 58.583 52.033 88.958 10.242 19.584 19.046 41 22.875 62.542 5.655 31.833 10.492 63.792 15.117 95.792h18.808c-5.508-35.834-11.15-71.625-17.674-107.292-4.338-23.583-11.746-43.458-24.192-63.833-24.063-39.417-31.571-63.792-32.267-98.375-3.996-37.125-36.579-181.792-49.967-197.584 11.834 63.417 20.234 132.875 31.642 194-6.942 1.834-2.117 2.625-9.062 4.417ZM1139.46 6956.25c1.174 1.375 2.32 2.75 3.508 4.125 15.791 18 30.691 36.875 44.921 56.292h20.821c-26.288-39-52.655-78.084-79.226-117.5-1.358 3.041-3.395 7.708-6.924 15.75-34.976-45.5-68.105-87.584-65.167-148.667 1.792-36.792-6.658-74.042-11.396-111-.863-6.875-5.771-13.25-8.829-19.875-2.758.542-5.496 1.125-8.25 1.667 5.679 49.625 11.371 99.291 17.029 148.875-4.996.916-2.996.541-7.983 1.416l-28.142-108.75c-3.363.875-6.687 1.75-10.021 2.625 3.679 41.25 7.358 83.334 29.396 120 24.883 41.375 51.321 81.417 81.15 119.667-9.992-5.875-20.875-10.917-32.829-15.542-51.458-19.833-100.809-38.333-150.925-61.708-3.929-1.833-7.275 2.583-4.521 6 53.733 66 150.2 60 217.388 106.625ZM6451.46 7016.67h26.209c-5.875-52.5-13.542-104.834-19.209-157.334-1.791-16.375-1.083-32.958 2-49.125 13.5-71 29.876-141.5 42.125-212.666 11.459-66.292 40.209-120.792 93.667-164.125 17.583-14.25 28.041-37 41.583-56.084-4.5-4.25-3.416-3.291-7.916-7.541-25.125 18.083-27.625 64.416-76.917 63.458-13.25 21.458-30.083 48.792-51.917 84.208-3.958-42.958-13.541-76.916-8.375-108.5 6.75-40.666 25.751-79.333 38.625-119.166 5.042-15.584 7.834-31.875 11.626-47.875-3.001-.25-6.001-.459-9.001-.709-9.833 19.709-18.833 39.875-29.583 59.084-36.542 65.541-40.625 133.791-22.167 205.333 5.042 19.625 5.501 41.875 1.917 61.875-14.208 79.875-31.458 159.208-46.167 239-3.625 19.458-5.25 40.375-2.166 59.708 7.916 50.042 12.75 100.209 15.666 150.459ZM6564.88 7016.67h24.833l.208-1c36.292-31.5 67.542-74.292 96.251-112.834 67.791-9.416 137.583-64.375 167.167-125.166 1.083-2.25-1.542-4.459-3.417-2.709-27.375 25.792-54.084 51.459-85.083 72.834-19.626 13.541-40.876 22.916-62.126 32.625 28.375-39.459 50.75-80.5 51.709-131.042.083-4.208-5.667-4.667-6.917-.958-19.333 57.125-48.083 104.375-85.833 150.791-21.292 26.125-46.125 51.667-67.126 79.25.251-5.083.542-10.083.417-15.125-1.875-90.083 3.625-176.583 41-259.875 7.001-15.625 7.375-34.125 10.792-51.291l-11.5-2.292c-29.375 67.083-63.417 134.167-62.542 208.958.667 53.292-.166 105.834-7.833 157.834ZM6237.21 6849.38c3.541 13.625 6.708 27.292 9.291 41.083 6.834 37 22.625 72.459 34.833 108.459 2 5.958 4.084 11.833 6.167 17.75h49.291c.209-7.167.5-14.292.918-21.375 2.291-38.834 19.583-76.584 27.041-115.417 16.25-84.375 7.958-168.417-8.083-251.917-2.125-11.083-7.709-21.5-11.709-32.25-3.416.917-6.875 1.792-10.292 2.667 4.876 34.708 11.084 69.333 14.334 104.208 3.334 35.667 6.083 71.709 4.792 107.417-1.25 34.042-8.042 67.875-12.417 101.792l-11.833-1.042c-6.75-73.917-13.542-147.792-21.209-230.833-4.375 18.958-9.25 29.208-8.624 39.166 4.207 68.375 10.083 136.625 14.291 205 1.708 27.167.417 54.5.5 81.75-11.833-2.458-15.291-5.291-16.75-8.875-33.5-81.416-47.959-166.333-48.459-253.875-.082-15.291-2.541-30.583-3.999-45.916-4.876-.542-4.042-.459-8.917-1.042-3.333 9.25-6.667 18.458-10 27.667-6.125-1-4.625-.792-10.708-1.792-.084-84.833-.084-169.583-.125-254.375-8.375 6.708-13.042 14.083-13.667 21.708-3.708 46.167-7.5 92.375-9.292 138.625-2.749 72.709 22.584 140.084 41.292 208.792-38.25-23.333-70.167-49.958-94.292-90-26.25-43.542-38.5-93.625-62.583-138.167-1.417-2.666-6.292-1.625-5.958 1.667 9.041 91.458 66.291 221.667 166.167 239.125ZM6879.08 7016.67c4.501-7.959 8.792-16.042 12.584-24.292 16.208-35.083 30.875-72.625 17.75-114.417-9.208 25.5-17.417 62.917-26.625 88.375-8.459-2.166-2.584-3.166-11.042-5.375 13.875-74.375 24.125-158.958 38.5-236.166-16.291 19.208-55.958 195.333-60.833 240.541-.375 18.667-2.375 34.875-7.042 51.334h36.708ZM7043.83 7016.67h42.876c19.958-41.084 23.999-86.792 27.999-131.667-4.041-1.042-8.083-2.083-12.208-3.167l-34.25 132.417c-6.083-1.083-3.625-.625-9.708-1.75 6.874-60.375 13.833-120.792 20.708-181.208-3.333-.709-6.666-1.375-10.042-2.084-3.708 8.042-9.666 15.834-10.75 24.209-5.75 45-16.041 90.375-13.875 135.166.5 9.709.167 19.084-.75 28.084ZM5673.5 7016.67c6.542-7.834 12.083-16.167 16.25-24.709.625-1.333-.917-2.625-2.041-1.583-9.501 8.958-18.876 17.875-28.751 26.292h14.542ZM5622.33 7016.67c5.542-12.75 9.042-26.334 9.292-41.292.083-2.5-3.333-2.75-4.042-.583-5.083 14.958-11.291 28.75-18.541 41.875h13.291ZM5542.38 7016.67c3.583-23.167 9.708-45.917 19.708-68.292 4.125-9.167 4.333-20 6.334-30.083l-6.75-1.375c-14.167 32.416-30.208 64.833-35.167 99.75h15.875ZM5445.83 7008.92a150.316 150.316 0 0 0-1.208 7.75h13.542c.25-1.875.541-3.75.875-5.625 7.916-41.667 17.541-83.042 24.75-124.834 6.708-38.916 23.625-70.916 54.958-96.375 10.333-8.375 16.5-21.708 24.459-32.916-2.667-2.5-2.042-1.959-4.667-4.417-14.75 10.583-16.209 37.792-45.167 37.25-7.75 12.583-17.667 28.625-30.458 49.417-2.334-25.209-7.959-45.125-4.917-63.667 3.959-23.917 15.083-46.625 22.667-70 2.958-9.125 4.583-18.708 6.833-28.083-1.792-.167-3.542-.292-5.292-.459-5.791 11.584-11.083 23.417-17.375 34.709-21.458 38.5-23.833 78.541-13.041 120.583 2.999 11.5 3.25 24.583 1.125 36.333-8.334 46.875-18.459 93.459-27.084 140.334ZM5396.42 7010.96c-.042 1.917-.209 3.792-.292 5.709h11.208c2.459-37.667-2.041-75.25-9.25-112.625-1.25-6.459-4.5-12.625-6.833-18.917-2.042.542-4.041 1.042-6.084 1.583 2.876 20.375 6.542 40.709 8.417 61.167 1.959 20.958 3.583 42.083 2.834 63.083ZM5377.29 7016.67c-2.417-26.25-4.917-53.209-7.542-82.084-2.583 11.125-5.458 17.125-5.083 23 1.208 19.709 2.666 39.375 4.125 59.084h8.5ZM5337.58 7016.67c-1.625-14.875-2.458-29.875-2.541-45-.042-9-1.5-17.959-2.334-26.959-2.875-.333-2.375-.291-5.25-.625l-5.874 16.25c-3.584-.583-2.709-.458-6.292-1.083-.042-49.792-.042-99.542-.042-149.333-4.917 3.958-7.667 8.25-8.042 12.75-2.166 27.125-4.416 54.25-5.458 81.416-1.459 39.167 10.917 75.667 21.458 112.584h14.375ZM5290.42 7016.67h20.501c-15.875-11.459-29.417-24.834-40.292-42.875-15.375-25.542-22.583-54.959-36.708-81.084-.875-1.583-3.709-1-3.5.959 4.041 40.916 24.541 95 59.999 123ZM5713.88 7016.67c2.917-18.834 5.917-37.625 9.292-55.75-4.334 5.083-11.376 28.791-18.125 55.75h8.833ZM3797.9 7016.67c57.129-46.667 124.092-81.292 198.125-83.417 0 0-64.996-16.583-142.15 31.292 0 0-27.363 12.041-72.242 52.125h16.267ZM3673.55 7016.67c58.434-112.75 117.417-185.292 111.508-178.959-55.233 59.167-97.183 120.334-129.058 178.959h17.55ZM3419.19 7016.67c-52.195-54.875-98.249-41.417-98.249-41.417 30.041 9.125 55.204 23.583 76.345 41.417h21.904ZM3521.12 7016.67h14.863c-6.059-16.125-10.505-24.75-10.505-24.75-38.437-80.959-87.425-82.709-87.425-82.709 38.405 29.375 64.967 66.875 83.067 107.459ZM3571.6 7016.67h12.733c-18.354-42.375-47.841-47.917-47.841-47.917 15.42 14.667 26.816 30.917 35.108 47.917ZM3176.25 7016.67c12.717-22.042 30.512-42.042 55.246-57.625 0 0-36.608-.584-64.075 50.833 0 0-1.371 2.375-3.479 6.792h12.308ZM3096.16 7016.67c6.209-28.75 17.842-56.834 37.267-82.209 0 0-35.325 11.125-47.671 77.792 0 0-.337 1.5-.821 4.417h11.225ZM3063.71 7016.67a128.24 128.24 0 0 1 9.562-19.084s-9.754 4.75-17.488 19.084h7.926ZM2940.53 7016.67h13.509a652.67 652.67 0 0 0-87.121-64.625c-4.271-2.625 28.733 21.208 73.612 64.625ZM5132.12 7016.67c11.416-11.75 17.542-17.417 15.625-15.917-6.667 5.25-13.125 10.583-19.458 15.917h3.833Z" style="fill:#1e1b23;fill-rule:nonzero"/><path d="M5580.58 5755.25c-3.125 16.5-3.125 30.667-3.125 30.667s-32.75 915.5-36 927.583l-14.166 1.875 8.291-940.75 4.709-20.875 40.291 1.5Z" style="fill:#8c6239;fill-rule:nonzero"/><path d="M5558.42 5702.79s-55.459 20.25-65.959 93.541c0 0-2.624 6.667 9.417 11.584 0 0 7.917 1.083 13.292-10.917 0 0 10.958-56.292 39.25-68.833 0 0-32.209 35.791-34.625 72.916 0 0-2.584 8.709 5.125 18.917 0 0 5.208 4.333 12.958 1.375 0 0 5.25-1.542 5.333-14.667 0 0 7.209-50.708 27.334-63.791 0 0-16.875 24.416-21.167 52.791 0 0-1.333 14.584 1.875 23.334 0 0 2.25 3.666 9.458 6.333 0 0 9.584 3.167 12.709-13.875 0 0-3.542-35.208 16.125-53.125 0 0-18.125 18.542-11.167 52.167 0 0 7.5 10.708 13.208.833 0 0 3.375-1.708 3.959-23.208 0 0 2.625-14.625 20.083-20.375 0 0 25.791-1.209 31.167-27.709 0 0 5.166-33.208-37.042-48.875 0 0-33.542-10.958-57.875-5.75 0 0-20.292.084-36.125 6.584 0 0-25.875 25.666 42.667 10.75Z" style="fill:#faab77;fill-rule:nonzero"/><path d="m5663.08 5671.92 32.5 71.958c-25.041 10.333-45.208 17.5-55.167 20.875-20.291 6.958-42.208-4.208-49.041-24.875-6.791-20.708 4.167-43.042 24.417-50 14.541-5 30.625-11.083 47.291-17.958Z" style="fill:#faab77;fill-rule:nonzero"/><path d="M5616.21 5675.04s255.958-24.709 388.709-237.667l8.416 115.792s-157.708 207.416-362.875 208.625l-34.25-86.75Z" style="fill:#662d91;fill-rule:nonzero"/><path d="M5825.75 6713.42c1 .041 1.958.083 2.958.041 26.084-.833 46.834-25 46.25-54.041-.041-3.292-69.791-202.334-48.791-455.875 11.5-138.167 96.417-303.042 127.125-437 6.458-28.209-8.833-56.75-34.167-63.792-25.333-7-51.084 10.208-57.542 38.417-31.833 139-107.541 307.083-119.458 447.75-21.917 258.041 38 459.625 38.25 473.416.542 27.959 20.583 50.167 45.375 51.084Z" style="fill:#f7b18f;fill-rule:nonzero"/><path d="M5776.79 6631.25s29.125 58.5 103.125 44.917c0 0 4.625 32 1.875 55.75 0 0-239.292 11.291-289.375-16.792 0 0-22.042-26.583 33.208-39.583 0 0 129.25-42.25 151.167-44.292Z" style="fill:#212023;fill-rule:nonzero"/><path d="M6434.71 6592.96a49.794 49.794 0 0 0 2.334-1.833c20.166-16.958 21.958-49 4.041-71.625-2-2.542-209.458-69.5-345.375-282.958-74.042-116.334-73.542-346.334-129.916-471.375-11.834-26.292-41.083-39.292-65.292-29.042-24.25 10.292-34.25 39.958-22.375 66.292 58.417 129.708 72.75 370.416 147.917 489 137.958 217.541 333.542 278.75 342.083 289.5 17.25 21.75 46.458 26.791 66.583 12.041Z" style="fill:#f7b18f;fill-rule:nonzero"/><path d="M6346.58 6558.58s58.208 28.042 108.499-28.916c0 0 22.917 22.416 35 42.875 0 0-182.25 158.375-238.666 167.5 0 0-33.458-7.209 2.375-52 0 0 76.708-114.125 92.792-129.459Z" style="fill:#212023;fill-rule:nonzero"/><path d="M6011.25 4791.96c-88.458-23.166-141.5 29.292-173.208 114.625-1.125 3.042-2.25 6.042-3.334 9.042-5.458 2.25-8.083 12.417-16.167 13.875-17.416 3.042-30.291 18.25-23.749 22.917 1.292.958 22.708 9.083 24.375 9.166-18.584 64.25-17.167 120.792 68.25 146.125 8.5 2.542 16.791 3.834 24.916 4.459l-2.749 47.791c-1.376 23.917 14.874 44.917 37.458 50.292 2.625.625 5.333 1 8.083 1.208 26.667 1.792 49.542-18.375 51.042-45l5.583-97.041c22.625-23.292 41.375-54 55.167-87.959 40.583-99.666 7.75-172.916-55.667-189.5ZM5730.46 4906.96s7.291-59.583-52.167-102.166c0 0-4.667-5.417-14.417 3.291 0 0-4.5 6.75 3.583 17.084 0 0 44.333 35.291 42.584 66.708 0 0-16.834-45.458-48.292-64.375 0 0-6.417-6.292-18.833-3.875 0 0-6.167 2.75-7.084 11.167 0 0-1 5.458 10.459 11.458 0 0 41.166 29.458 43.542 53.625 0 0-13.792-26.375-36.667-43.042 0 0-12.209-7.791-21.292-8.833 0 0-4.25.375-9.833 5.75 0 0-7.084 7.292 6.416 17.792 0 0 32.459 12.708 39.25 38.666 0 0-8.042-24.875-40.625-33.708 0 0-12.75 2-6.666 11.625 0 0-.042 3.875 18.541 14.083 0 0 11.584 9 8.792 27.459 0 0-10.625 24 10.208 40.833 0 0 26.75 19.667 59.5-11.625 0 0 24.709-25.583 31.125-50.083 0 0 9.084-18.459 10.542-35.792 0 0-10.833-35.125-28.666 33.958Z" style="fill:#faab77;fill-rule:nonzero"/><path d="M6078.25 5738.83c-2.625 63.959-55.917 16.125-126.625 13.167l.167-4c-21.584-.917-43.5 2.667-63.459 6.208-45.416 8.084-80.708 16.125-78.916-28.291l-4.292-425.375c2.583-63.917 93.167-165.209 163.875-162.209l5.333.209c70.709 3 125.917 57.208 123.292 121.166l-19.375 479.125Z" style="fill:#93278f;fill-rule:nonzero"/><path d="M5641.75 5212.42c-23.875-92.834-7.166-226.625-2.542-258.792 3.084-21.583 22.75-36.542 43.917-33.375 21.167 3.125 35.792 23.167 32.791 44.708-12.166 85.417-15.791 227.417 15.125 260.959 2.709 2.916 4.376 3.625 8.251 3.291l2.042-.125c88.791-2.458 230.208-15.75 266.666-37.583 18.458-11.042 42.209-4.75 53.042 14.042 10.875 18.791 4.666 43-13.75 54.041-66.292 39.667-261.834 47.25-302.959 48.417-27.041 1.917-51.166-7.792-69.833-28.083-15.292-16.625-25.75-40.292-32.75-67.5Z" style="fill:#faab77;fill-rule:nonzero"/><path d="M5868.62 5188.83s-33.167-74.375 114.333-76.791c0 0 65.334-95.209 76.375 52.541l-190.708 24.25Z" style="fill:#662d91;fill-rule:nonzero"/><path d="M5725.12 4989.58c-9.542 85.5-17.917 190.667 9.708 220.959 2.709 2.958 6.501 6.541 10.334 6.208l.541 2.125c88.792-2.042 211.125-17.583 248.584-37.583 43.791-23.375 58.916 6.583 69.666 25.416 10.792 18.875 4.501 43.042-14 54-66.458 39.334-264.041 57.959-305.125 58.959-27.083 1.791-55.291-11.667-73.875-32.042-15.208-16.667-28.125-41.833-35-69.042-15.708-62.25-8.542-193.291-3.666-249.375l92.833 20.375Z" style="fill:#662d91;fill-rule:nonzero"/><path d="M6052.42 5649.17c-1.166 28.666 20.709 52.875 48.834 54.083l89.125 3.708c28.125 1.209 51.875-21.083 53.042-49.75l16.583-408.708c1.125-28.667-20.708-52.875-48.833-54.042l-89.125-3.75c-28.167-1.166-51.875 21.084-53.042 49.75l-16.584 408.709Z" style="fill:#3f383e;fill-rule:nonzero"/><path d="M6192.54 5707.04h.166-.166Zm0 0c-.709 0-1.459-.042-2.167-.084l-89.125-3.708c-.083 0-.208-.042-.292-.042.084 0 .209.042.292.042l89.125 3.708c.708.042 1.458.084 2.167.084Zm-91.751-3.834h-.124.124Zm-.333 0h-.083.083Zm142.959-46 16.583-408.708v-.333.333l-16.583 408.708Zm16.583-409.041c.208-6.25-.667-12.292-2.5-17.917 1.833 5.625 2.708 11.667 2.5 17.917Zm-2.5-17.917a.791.791 0 0 0-.083-.292c.041.084.083.167.083.292Zm-.125-.417v-.083.083Zm-.083-.291v-.042.042Z" style="fill:#a2c3d0;fill-rule:nonzero"/><path d="M6192.54 5707.04c-.709 0-1.459-.042-2.167-.084l-89.125-3.708c-.083 0-.208-.042-.292-.042h-.583c-.084-.041-.166-.041-.25-.041-23.667-1.542-42.667-19.417-46.833-42.292 3.625 1 7.416 1.667 11.333 1.833l89.125 3.75c.708 0 1.417.042 2.125.042 27.208 0 49.792-21.875 50.917-49.792l16.583-408.75c.167-4-.167-7.875-.875-11.666 16.375 4.541 29.375 17.166 34.792 33.208v.042c0 .041.041.125.083.208v.083c.042.042.042.084.042.125a.791.791 0 0 1 .083.292c1.833 5.625 2.708 11.667 2.5 17.917v.333l-16.583 408.708c-1.125 27.917-23.625 49.75-50.709 49.834h-.166Z" style="fill:#362f35;fill-rule:nonzero"/><path d="M6243.33 5501.62c-.666 16.125 11.625 29.75 27.459 30.417 15.833.666 29.166-11.875 29.833-28l10.5-259.5c.666-16.125-11.625-29.75-27.459-30.417-15.791-.667-29.166 11.875-29.832 28l-10.501 259.5ZM6386 6477.21l-82.125 88.875s-377.458-169.166-397.083-566.416c0 0-108.167 185.625-33.834 630.875l-128.125-44.959s-56.083-323.916-22.583-472.083l92.584-381.625 263.416 6.958s-17.042 358.5 50.625 516.167c0 0 25.292 81.417 257.125 222.208Z" style="fill:#3f383e;fill-rule:nonzero"/><path d="M5794.67 4678.62c24.458-18.833 52.499-19.167 100.208-19.75a397.576 397.576 0 0 1 57.042 3.417c-6.542 6.791-15.625 11.041-25.042 11.75 32.209.416 65.167 4.5 93.708 19.416 28.5 14.917 52.001 42.375 55.292 74.375-18.792-7.75-37.625-15.541-56.416-23.291 25.999 38.25 42.666 82.75 48.166 128.666 3.75 31.584 1.583 65.875-17.292 91.459-28.541 38.708-83.375 44.083-131.458 46.083 6.083-27.833 16.125-54.792 29.75-79.792 4.917-9.083 10.541-18.958 8.583-29.083-3.374-17.417-28.041-22.833-43.291-13.792-15.292 9.042-23.083 26.5-29.959 42.875-14.708-2.625-15.999-23.875-9.916-37.541 6.083-13.709 15.874-28.375 10.375-42.292-3.834-9.75-15.542-15.583-25.625-12.792-10.084 2.792-17.125 13.834-15.417 24.167-9.042-15-14.083-32.333-14.541-49.833l-27.001 8.625h-.375c-14.625-.167-40.666-32.125-43.041-66.5-2.209-31.209 15.375-60.125 36.25-76.167Z" style="fill:#42210b;fill-rule:nonzero"/><path d="m2450.43 1641.54 204.371 51.933 257.088 12.921-47.405-109.254-203.879 13.308-197.733-51.271-12.442 82.363Z" style="fill:#046296;fill-rule:nonzero"/><path d="m2450.43 1641.54 12.442-82.363s-5.95-3.921-13.042-5.6c-7.533-1.783-16.362-1.029-20.687 9.687 0 0-28.275-38.479-51.042-24.208 0 0-6.787 7.313-6.521 14.363 0 0-24.087-20.987-39.275 7.121 0 0-26.979 52.554 23.171 71.85 0 0 49.259 14.396 71.134-4.788 0 0-2.246 15.625 23.82 13.938Z" style="fill:#183651;fill-rule:nonzero"/><path d="m2829.82 1512.1 72.55 97.033-68.013 57.455-57.125-78.575 52.588-75.913Z" style="fill:#e07955;fill-rule:nonzero"/><path d="M2357.52 1128.52h21.283v1138.76h-21.283z" style="fill:#754c24;fill-rule:nonzero"/><path d="m3343.82 2026.4-243.63 113.85s-182.979-201.608-259.754-304.254c-7.875-10.504-14.6-19.996-19.933-28.092-5.079-7.742-8.854-14.217-11.075-19.2-27.329-61.317-.033-104.071 6.787-112.45 0 0 85.859-144.004 201.992-41.55 0 0 143.463 109.308 239.092 245.95l86.521 145.746Z" style="fill:#0071bc;fill-rule:nonzero"/><path d="M2840.43 1836c-7.875-10.504-14.6-19.996-19.933-28.092 46.783-18.533 219.942-86.925 64.637-157.958 0 0 11.03-1.442 26.784-1.442 26.512 0 66.417 4.079 89.696 25.954l10.446 13.055c8.754 15.004 11.441 35.62 3.662 63.854-15.713 56.974-129.808 78.029-175.292 84.629Z" style="fill:#06a;fill-rule:nonzero"/><path d="M2676.34 1780.71s133.575-87.816 192.495-128.337c58.926-40.517 148.892 46.217 128.346 80.213-20.545 33.995-20.545 33.995-108.783 66.083l-204.033 62.254h-244.842l-11.529-80.696 248.346.483Z" style="fill:#046faa;fill-rule:nonzero"/><path d="m3131.54 2154.6 67.596 459.763 94.858 239.8 138.187 80.295-74.837-378.445v-456.042l-18.359-81.746-186.962 54.396-20.483 81.979Z" style="fill:#1e4568;fill-rule:nonzero"/><path d="M3152.03 2072.62s-307.104 18.779-358.633 61.483c-51.534 42.709-51.534 429.021-51.534 429.021h69.829s90.871-169.046 97.938-233.058c7.067-64.009-3.521-113.992-3.521-113.992s303.771 99.671 388.025 27.446c138.746-118.933 44.858-225.296 44.858-225.296l-115.241 44.155-71.721 10.241Z" style="fill:#264c74;fill-rule:nonzero"/><path d="m2446.96 1861.83.563-83.296s-27.462-12.916-32.804 8.859c0 0-33.471-34.05-53.971-16.684 0 0-5.675 8.208-4.404 15.15 0 0-26.833-17.333-37.858 12.654 0 0-19.201 55.867 33.183 67.809 0 0 50.812 7.221 69.725-14.884 0 0 .008 15.779 25.566 10.392Z" style="fill:#183651;fill-rule:nonzero"/><path d="M2860.64 1476.33c8.959 65.655-31.533 125.4-90.45 133.438-58.92 8.046-113.945-38.65-122.904-104.3l-4.25-31.013c-8.954-65.641 31.538-125.379 90.454-133.416 58.926-8.046 113.946 38.65 122.917 104.287l4.233 31.004Z" style="fill:#e07955;fill-rule:nonzero"/><path d="M2756.44 1381.98c-.659-.208-1.354-.387-2.029-.579a16.98 16.98 0 0 1 3.05-2.754c-.446 1.071-.809 2.179-1.021 3.333Z" style="fill:#dc6144;fill-rule:nonzero"/><path d="M2785.93 1577.79c0 5.03-4.075 9.109-9.104 9.109h-9.117c-5.029 0-9.104-4.079-9.104-9.109a9.104 9.104 0 0 1 9.104-9.108h9.117a9.104 9.104 0 0 1 9.104 9.108Z" style="fill:#e07955;fill-rule:nonzero"/><path d="M3243.18 1976.24c20.092 25.088 56.738 29.15 81.85 9.067l79.525-63.683c25.108-20.083 29.175-56.725 9.075-81.842l-286.533-357.925c-20.096-25.1-56.738-29.166-81.842-9.067l-79.529 63.663c-25.104 20.1-29.167 56.746-9.067 81.842l286.521 357.945Z" style="fill:#3f383e;fill-rule:nonzero"/><path d="M3127.09 1481.85a58.127 58.127 0 0 0-14.584-13 57.972 57.972 0 0 1 14.584 13Z" style="fill:#a2c3d0;fill-rule:nonzero"/><path d="M3288.73 1998.05c-12.921 0-25.754-4.283-36.221-12.583 3.875-1.879 7.625-4.154 11.121-6.967l79.534-63.675c25.112-20.087 29.175-56.737 9.074-81.846l-286.525-357.933c-2.804-3.492-5.954-6.546-9.329-9.225a58.148 58.148 0 0 1 25.288-5.771c10.787 0 21.508 2.979 30.837 8.804a58.127 58.127 0 0 1 14.584 13l286.533 357.925c8.558 10.696 12.738 23.479 12.771 36.183.05 17.134-7.429 34.126-21.846 45.659l-79.525 63.683c-10.729 8.579-23.558 12.746-36.296 12.746Z" style="fill:#362f35;fill-rule:nonzero"/><path d="M3299.03 1708.32c11.313 14.117 31.917 16.404 46.033 5.096 14.125-11.296 16.404-31.909 5.105-46.021l-181.93-227.279c-11.291-14.109-31.9-16.404-46.029-5.092-14.112 11.304-16.404 31.912-5.104 46.033l181.925 227.263Z" style="fill:#3f383e;fill-rule:nonzero"/><path d="M2741.86 2563.13s-71.829 43.525-144.283 50.779c-72.45 7.258-131.275 25.796-62.354 65.696 68.916 39.904 231.125-23.979 252.887-13.1 21.763 10.883 47.155-19.95 23.579-103.375h-69.829Z" style="fill:#033044;fill-rule:nonzero"/><path d="m2643.05 2596.81 15.179 34.663a4.168 4.168 0 0 0 7.634-3.346l-15.18-34.658a4.168 4.168 0 0 0-5.491-2.146 4.162 4.162 0 0 0-2.142 5.487ZM2664.12 2589.04l15.179 34.662a4.17 4.17 0 0 0 5.487 2.146 4.17 4.17 0 0 0 2.146-5.492l-15.179-34.658a4.172 4.172 0 0 0-5.491-2.146 4.167 4.167 0 0 0-2.142 5.488ZM2685.18 2583.52l15.184 34.659a4.167 4.167 0 0 0 7.633-3.341l-15.183-34.659a4.164 4.164 0 0 0-5.488-2.146 4.169 4.169 0 0 0-2.146 5.487ZM2618.33 2607.66l12.579 28.722a4.173 4.173 0 0 0 5.492 2.145 4.168 4.168 0 0 0 2.142-5.492l-12.58-28.716a4.167 4.167 0 0 0-7.633 3.341Z" style="fill:#f2f2f2;fill-rule:nonzero"/><path d="M2347.41 1546.65s49.612-17.067 46.558 22.029c-3.059 39.1 11.908 63.271-5.775 64.109-17.688.833-50.046-7.026-55.179-16.317-5.134-9.292-16.992-42.529 14.396-69.821Z" style="fill:#091923;fill-rule:nonzero"/><path d="M2895.35 1580.83c-4.642-8.966-15.8-12.312-24.588-7.342-29.337 16.588-87.662 52.146-80.841 69.201 3.787 9.462 8.992 17.816 13.775 24.345 6.125 8.363 18.071 9.7 25.941 2.955 17.117-14.679 46.855-39.321 66.542-50.879 8.179-4.8 11.154-15.146 6.792-23.567l-7.621-14.713Z" style="fill:#29abe2;fill-rule:nonzero"/><path d="M2357.52 1128.52s38.837-23.579 194.816 45.341c155.975 68.917 227.371 30.83 245.175 10.88 17.804-19.951 10.55 96.124-123.662 101.566-134.208 5.442-316.329 92.346-316.329 92.346V1128.52Z" style="fill:#c1272d;fill-rule:nonzero"/><path d="M2588.15 1388.78c-.496-10.008-1.2-28.933 9.521-48.971 14.483-27.066 39.846-37.546 47.704-40.437l-3.037 29.341c33.945-20.799 69.595-42.166 109.3-45.087a126.683 126.683 0 0 1-15.309 27.008c23.167-3.916 46.904-7.833 70.021-3.629 23.121 4.204 45.892 18.225 53.929 40.304-4.233-6.887-16.204-.946-16.992 7.104-.791 8.05 4.692 15.159 9.171 21.892 16.484 24.767 22.325 55.159 23.996 84.867.875 15.604.654 31.587-4.35 46.396-7.004 20.716-22.616 37.183-37.779 52.937.296-6.225.588-12.45.883-18.675l-36.912 30.042 3.812-67.829c.384-6.842.742-13.879-1.441-20.376-4.005-11.916-15.813-19.591-27.805-23.366-10.416-3.279-22.279-4.179-31.849 1.079-13.759 7.559-18.167 28.071-8.734 40.617 3.921 5.212-12.721-26.104-34.612-33.717-16.592-5.771-23.463 6.738-45.584 3.475-26.037-3.846-42.433-25.004-46.25-29.925-15.754-20.333-17.12-41.821-17.683-53.05Z" style="fill:#42210b;fill-rule:nonzero"/></svg>