<svg xmlns="http://www.w3.org/2000/svg" xml:space="preserve" style="fill-rule:evenodd;clip-rule:evenodd;stroke-linejoin:round;stroke-miterlimit:2" viewBox="0 0 9255 2084"><path d="m1137.96 122.201 1056.08 1866.13-1056.08-292.494L89.17 1984.686l1048.79-1862.48Zm-160.37 1190.93 224.154-183.15 173.127 126.656 149.436-100.231-386.347-692.509-365.389 653.327 205.019 195.907Zm1271.12-211.397c0 22.476 3.645 42.523 10.934 60.139 1.215 0 1.822.608 1.822 1.822l1.823 1.823c7.289 16.401 19.743 30.677 37.359 42.826 8.504 7.897 21.565 14.882 39.181 20.957l14.579 5.467c27.336 4.86 49.053 7.29 65.151 7.29s32.347-1.822 48.749-5.467c20.046-4.86 36.295-10.782 48.749-17.768 12.453-6.987 23.691-17.617 33.714-31.892 10.023-14.276 15.035-31.437 15.035-51.483v-3.645c-1.215-32.195-23.691-56.494-67.429-72.895-16.401-7.29-41.915-15.187-76.54-23.691-29.766-9.112-66.517-18.528-110.255-28.247l-7.289-1.823c-20.047-3.645-34.929-7.289-44.649-10.934-16.401-4.253-30.677-8.809-42.826-13.668-23.691-7.29-51.027-20.35-82.008-39.181-26.728-18.224-46.167-39.182-58.316-62.873-14.579-25.513-21.869-56.191-21.869-92.031-.608-55.886 9.112-99.928 29.158-132.123 21.261-34.625 48.597-61.354 82.008-80.185 30.373-17.616 61.658-30.07 93.853-37.359l18.224-5.467c43.737-7.898 87.93-11.846 132.579-11.846 44.648 0 86.411 3.797 125.289 11.39s76.237 22.628 112.077 45.104c26.122 15.794 49.205 36.751 69.251 62.873l10.935 17.312 10.934 20.047c9.112 17.616 15.49 39.484 19.135 65.606 2.43 15.187 4.859 37.055 7.29 65.606l1.822 16.401-1.822-1.822c-22.477-11.542-44.346-20.958-65.607-28.247-27.335-9.72-58.316-17.616-92.941-23.691-12.757-2.43-29.766-6.682-51.027-12.757l-18.224-6.378c0-12.149-1.823-21.869-5.467-29.159-4.86-11.542-14.124-20.654-27.792-27.335-13.668-6.682-29.31-11.846-46.927-15.491-15.186-5.467-34.017-8.201-56.494-8.201-6.681 0-18.224 1.215-34.625 3.645h-6.378c-18.832 3.037-31.892 6.379-39.182 10.023-12.149 4.86-22.324 12.302-30.525 22.325-8.201 10.023-12.301 24.905-12.301 44.648 0 19.743 7.137 35.84 21.413 48.294 14.276 12.453 33.259 22.324 56.95 29.613 13.971 5.468 37.662 12.454 71.073 20.958l10.934 1.822c25.514 4.86 56.191 11.542 92.031 20.047 33.411 7.897 64.998 17.312 94.764 28.247 28.551 8.504 56.495 22.172 83.83 41.004 23.691 17.616 43.13 40.092 58.317 67.428 15.187 26.121 22.476 58.316 21.869 96.587.607 55.279-9.72 100.839-30.981 136.679-4.253 6.682-10.023 14.883-17.313 24.602-20.046 26.728-43.129 48.294-69.251 64.695-35.84 24.299-75.021 40.093-117.544 47.382-46.774 9.72-92.031 14.579-135.768 14.579-43.737 0-90.512-4.859-140.324-14.579-42.523-9.112-82.311-25.513-119.367-49.204-33.41-21.261-62.569-51.027-87.474-89.297-21.261-35.234-33.107-81.4-35.537-138.502h213.22Zm880.215 291.582V967.788c0-83.222 13.515-142.905 40.548-179.05 27.032-36.144 70.921-54.216 131.667-54.216 53.458 0 90.361 16.402 110.711 49.205 20.349 32.803 30.525 82.918 30.525 150.347v459.242h220.509V893.07c0-52.241-4.253-97.498-12.757-135.768-9.112-41.307-24.146-76.54-45.104-105.699-20.957-29.158-51.482-51.938-91.575-68.339-36.448-16.402-85.045-24.603-145.791-24.603-44.345 0-89.297 10.935-134.857 32.803-45.56 21.869-82.008 55.887-109.344 102.054h-5.467V581.441h-208.664v811.875h219.599Zm681.118-256.045c18.527 52.241 46.471 97.953 83.83 137.134 37.359 39.182 81.552 68.188 132.579 87.02 52.242 21.261 109.191 31.891 170.849 31.891 61.658 0 119.215-10.63 172.672-31.891 48.596-17.01 92.942-45.56 133.034-85.653 35.84-40.092 63.784-86.26 83.83-138.501 19.439-57.102 29.311-117.089 29.614-179.962.303-62.872-9.568-122.859-29.614-179.961-21.261-54.671-49.66-100.99-85.197-138.957-35.536-37.967-79.426-66.973-131.667-87.019-49.813-21.261-107.674-31.892-173.583-31.892-65.91 0-122.556 10.631-169.938 31.892-54.672 22.476-98.106 51.635-130.301 87.475-37.056 37.662-64.998 83.83-83.83 138.501-20.046 52.242-30.069 112.23-30.069 179.961 0 67.732 9.264 127.72 27.791 179.962ZM4013.695 858.9c7.29-35.536 17.921-63.328 31.892-83.374 13.365-24.906 32.803-45.104 58.317-60.595 25.513-15.49 57.253-23.387 95.22-23.691 37.966-.303 68.795 7.138 92.486 22.325 27.336 17.616 47.99 38.27 61.961 61.961 15.794 26.121 26.121 54.064 30.981 83.83 6.682 35.233 9.871 68.036 9.567 98.409-.303 30.373-3.492 62.873-9.567 97.498-4.86 29.766-15.035 57.709-30.525 83.83-15.491 26.121-35.689 46.774-60.595 61.961-24.905 15.187-56.342 22.78-94.308 22.78-37.967 0-69.251-7.289-93.854-21.869-24.602-14.579-44.496-35.536-59.683-62.872-13.971-20.046-25.21-47.99-33.714-83.83-6.075-34.625-9.112-67.125-9.112-97.498 0-30.373 3.645-63.328 10.934-98.865Zm901.173 534.416h233.266l140.324-560.385h1.822l145.791 560.385h230.533l259.69-834.655h-231.443l-151.259 564.03h-3.644l-137.591-564.03H5183.67l-135.768 565.853h-4.556l-150.347-565.853h-237.822l259.691 834.655Zm1011.43-397.281c0-27.336 1.823-54.064 5.468-80.185 6.681-32.803 14.882-61.05 24.602-84.741 17.009-47.99 45.56-92.031 85.652-132.123 38.878-35.841 86.26-64.392 142.147-85.653 55.886-21.261 118.759-31.892 188.617-31.892 53.457 0 103.117 5.923 148.981 17.769 45.863 11.845 90.056 33.866 132.579 66.061 30.98 23.691 54.671 47.99 71.073 72.896 16.401 22.476 27.639 39.181 33.714 50.116 9.72 18.831 16.402 36.448 20.046 52.849-44.952 17.009-82.918 34.929-113.899 53.761-26.121 16.401-57.102 40.092-92.942 71.073-8.504-46.168-23.388-87.778-44.649-124.834-38.27-68.643-90.511-102.357-156.725-101.143-38.878 0-71.073 7.138-96.587 21.413-25.513 14.276-47.079 34.474-64.695 60.595-17.009 28.55-27.943 55.279-32.803 80.185-1.214 1.215-1.822 3.645-1.822 7.29-6.682 28.55-10.023 54.671-10.023 78.362 0 27.944 3.189 55.887 9.567 83.83 6.379 27.944 17.616 53.761 33.714 77.452 16.099 23.691 36.904 42.978 62.417 57.861 25.514 14.883 56.798 22.324 93.853 22.324 29.159 0 56.647-3.645 82.464-10.934 25.817-7.29 47.534-17.921 65.15-31.892l54.672-45.56c57.102-46.774 101.75-79.577 133.946-98.409 51.027-30.98 114.507-57.709 190.439-80.185 4.86-3.037 22.173-8.201 51.939-15.49l58.316-14.579c37.056-7.29 64.998-12.757 83.83-16.402l35.537-3.645c26.728-4.252 47.078-6.986 61.05-8.2 38.878-4.86 67.732-9.72 86.563-14.58 21.869-5.467 41.004-14.275 57.406-26.424 13.971-9.72 20.805-26.728 20.502-51.027-.304-24.299-4.101-42.523-11.39-54.672-4.86-10.327-10.935-18.527-18.224-24.602l-12.757-9.112c-15.187-9.112-30.373-14.276-45.56-15.491-21.869-2.43-39.789-3.644-53.76-3.644-43.738 0-78.06 9.415-102.965 28.247-6.075 4.252-11.543 12.453-16.402 24.602l-5.467 16.402c-48.597 3.644-94.157 9.719-136.679 18.223-28.551 6.682-54.672 14.276-78.363 22.78l-25.514 9.112c.608-34.625 8.504-67.428 23.691-98.409 3.037-6.682 6.986-14.275 11.846-22.78l3.645-5.467c22.476-33.411 51.027-60.747 85.652-82.007 32.195-18.832 71.984-33.107 119.367-42.827 39.484-9.112 83.222-13.515 131.212-13.212 47.99.303 88.689 3.493 122.1 9.568 44.952 5.467 82.311 15.793 112.077 30.98 17.616 7.898 32.5 17.313 44.649 28.247h2.733v1.823c14.579 12.149 26.728 25.21 36.448 39.181 21.261 26.121 31.892 64.695 31.892 115.722v412.771c0 23.084 2.43 57.102 7.289 102.054 3.645 29.766 10.631 54.064 20.958 72.896h-222.332c-4.859-13.971-7.897-26.425-9.112-37.359l-3.645-16.402c-22.476 15.794-55.582 30.678-99.32 44.649-58.316 20.046-115.418 30.069-171.305 30.069-37.662 0-73.199-4.859-106.609-14.579-37.056-10.326-66.214-24.905-87.475-43.737-1.215 0-3.037-1.215-5.467-3.645-22.477-18.224-39.79-41.004-51.938-68.339 19.438-26.122 44.648-50.42 75.629-72.896 38.878-25.514 80.185-42.523 123.922-51.027v8.201c0 21.868 3.037 38.573 9.112 50.115 6.075 11.543 16.098 22.173 30.07 31.892 9.719 6.075 23.539 10.935 41.459 14.579 17.921 3.645 35.689 5.468 53.305 5.468 13.365 0 28.855-1.215 46.471-3.645 37.056-3.645 64.391-10.327 82.008-20.047 26.728-13.971 45.559-30.372 56.494-49.204 4.859-7.29 7.897-12.757 9.112-16.402 4.859-8.504 9.719-22.779 14.579-42.826v-7.289c3.037-20.047 4.556-33.107 4.556-39.182V992.39l-17.313 10.935c-7.29 2.43-13.364 4.859-18.224 7.289l-52.849 10.935c-10.935 2.43-28.855 5.011-53.761 7.745-24.905 2.733-44.345 5.315-58.316 7.745-9.72 1.215-30.525 4.556-62.417 10.023-31.892 5.467-50.268 8.809-55.127 10.023-85.653 23.084-157.637 52.546-215.954 88.386l-33.714 23.691c-13.364 10.935-32.5 28.247-57.405 51.939-41.308 37.662-76.237 65.909-104.788 84.741-81.4 53.457-176.772 80.185-286.115 80.185-61.961 0-121.493-10.023-178.594-30.07-53.458-17.616-99.776-43.737-138.958-78.362-39.181-34.626-69.403-76.237-90.664-124.834-21.261-46.168-31.892-98.409-31.892-156.726Zm2006.45 397.281v-366.3c0-37.056 3.645-71.681 10.934-103.876 7.29-32.196 19.135-58.925 35.537-80.186 18.831-24.905 42.523-43.889 71.073-56.949 28.55-13.06 61.354-19.591 98.409-19.591 18.832 0 33.107.608 42.826 1.822l37.359 5.468V566.862c-15.793-5.467-31.892-8.201-48.293-8.201-28.551 0-54.672 3.797-78.363 11.39-23.691 7.593-48.597 20.199-74.718 37.815-20.654 13.364-41.004 31.284-61.05 53.761-20.046 26.121-33.714 49.812-41.004 71.073h-4.556V581.441h-208.663v811.875h220.509Zm358.1-272.447c17.616 53.457 40.7 99.776 69.25 138.957 28.551 39.182 67.125 71.226 115.722 96.131 48.597 24.906 102.054 37.359 160.371 37.359 55.886 0 104.635-9.567 146.247-28.702 41.611-19.135 75.477-51.179 101.598-96.131h3.645v103.876h215.042V241.569h-225.977v410.95h-1.822c-26.121-38.878-61.506-68.796-106.154-89.753-44.649-20.958-90.057-31.436-136.224-31.436-62.569 0-116.178 11.845-160.826 35.536-44.649 23.691-81.552 54.824-110.71 93.398-29.159 38.573-51.938 83.982-68.34 136.223-16.402 52.242-24.602 106.307-24.602 162.193 0 55.887 7.593 109.951 22.78 162.193Zm203.196-158.548c0-40.093 3.037-72.592 9.112-97.498 7.897-32.195 19.287-60.139 34.17-83.83 14.883-23.691 35.081-42.978 60.594-57.861 25.514-14.882 56.95-22.324 94.309-22.324 37.359 0 68.492 7.745 93.398 23.235 24.905 15.491 44.8 34.778 59.683 57.861 14.883 23.084 24.754 50.116 29.614 81.097 6.075 26.121 9.112 58.772 9.112 97.953 0 39.182-3.037 71.832-9.112 97.954-4.86 29.766-15.338 57.708-31.436 83.83-16.098 26.121-35.385 46.167-57.861 60.139-26.122 15.187-56.95 22.779-92.487 22.779-35.536 0-65.758-7.592-90.664-22.779-29.158-20.047-49.812-40.701-61.961-61.962-15.794-21.868-27.488-49.356-35.081-82.463-7.593-33.106-11.39-65.15-11.39-96.131Z" style="fill-rule:nonzero"/></svg>