<svg xmlns="http://www.w3.org/2000/svg" xmlns:xlink="http://www.w3.org/1999/xlink" width="379.374" height="54.844" viewBox="0 0 379.374 54.844">
  <defs>
    <linearGradient id="linear-gradient" x1="0.498" y1="1" x2="0.498" y2="0.001" gradientUnits="objectBoundingBox">
      <stop offset="0" stop-color="#0088cf"/>
      <stop offset="1" stop-color="#0061a3"/>
    </linearGradient>
    <linearGradient id="linear-gradient-2" x1="0.536" y1="2.355" x2="0.536" y2="1.316" xlink:href="#linear-gradient"/>
  </defs>
  <g id="Logo" transform="translate(-91 -94)">
    <g id="SCD" transform="translate(91 94)">
      <g id="Group_1" data-name="Group 1" transform="translate(25.177 19.279)">
        <path id="Path_3" data-name="Path 3" d="M51.3,56.177l3.1-3.718a10.435,10.435,0,0,0,6.535,2.423c1.521,0,2.31-.507,2.31-1.408v-.056c0-.845-.676-1.3-3.38-1.915-4.282-1.014-7.606-2.2-7.606-6.366v-.056c0-3.718,2.986-6.479,7.831-6.479a12.418,12.418,0,0,1,8.282,2.7l-2.817,3.944a10.194,10.194,0,0,0-5.634-1.972c-1.352,0-2.028.563-2.028,1.3v.056c0,.9.676,1.352,3.493,1.972,4.62,1.014,7.493,2.479,7.493,6.254v.056c0,4.113-3.268,6.592-8.169,6.592A14.118,14.118,0,0,1,51.3,56.177Z" transform="translate(-51.3 -38.6)" fill="#3c3c3b"/>
        <path id="Path_4" data-name="Path 4" d="M87.3,39.3h8.62c5.127,0,8.394,2.648,8.394,7.1v.056c0,4.732-3.662,7.268-8.676,7.268H92.877v5.746H87.3Zm8.282,10.028c1.972,0,3.211-1.014,3.211-2.648v-.056c0-1.746-1.183-2.648-3.211-2.648H92.934v5.352Z" transform="translate(-67.018 -38.906)" fill="#3c3c3b"/>
        <path id="Path_5" data-name="Path 5" d="M164.2,39.3h9.521c3.1,0,5.239.789,6.592,2.2a6.194,6.194,0,0,1,1.8,4.676v.056a6.35,6.35,0,0,1-4.169,6.2l4.789,7.042h-6.479L172.2,53.384h-2.423v6.085H164.2Zm9.3,9.69c1.915,0,2.986-.9,2.986-2.366v-.056c0-1.577-1.127-2.366-3.042-2.366h-3.662v4.845H173.5Z" transform="translate(-100.594 -38.906)" fill="#3c3c3b"/>
        <path id="Path_6" data-name="Path 6" d="M205.028,44.2H199V39.3h17.69v4.9h-6.028V59.469h-5.577V44.2Z" transform="translate(-115.789 -38.906)" fill="#3c3c3b"/>
        <path id="Path_7" data-name="Path 7" d="M231.3,56.221l3.1-3.718a10.435,10.435,0,0,0,6.535,2.423c1.521,0,2.31-.507,2.31-1.408v-.056c0-.845-.676-1.3-3.38-1.915-4.282-.958-7.606-2.2-7.606-6.31v-.056c0-3.718,2.986-6.479,7.831-6.479a12.418,12.418,0,0,1,8.282,2.7l-2.817,3.944a10.194,10.194,0,0,0-5.634-1.972c-1.352,0-2.028.563-2.028,1.3v.056c0,.9.676,1.352,3.493,1.972,4.62,1.014,7.493,2.479,7.493,6.254h0c0,4.113-3.268,6.592-8.169,6.592A14.118,14.118,0,0,1,231.3,56.221Z" transform="translate(-129.892 -38.644)" fill="#3c3c3b"/>
        <path id="Path_8" data-name="Path 8" d="M266.1,49.135v-.056A10.359,10.359,0,0,1,276.748,38.6a9.927,9.927,0,0,1,8.563,4.225l-4.225,3.268a5.3,5.3,0,0,0-4.394-2.366c-2.817,0-4.789,2.366-4.789,5.352v.056c0,3.042,1.972,5.408,4.789,5.408a5.581,5.581,0,0,0,4.563-2.423l4.225,2.986a10.134,10.134,0,0,1-8.958,4.563A10.389,10.389,0,0,1,266.1,49.135Z" transform="translate(-145.086 -38.6)" fill="#0086cc"/>
        <path id="Path_9" data-name="Path 9" d="M302.4,49.135v-.056a10.853,10.853,0,0,1,21.69-.056v.056a10.853,10.853,0,0,1-21.69.056Zm16,0v-.056a5.234,5.234,0,0,0-5.183-5.465,5.175,5.175,0,0,0-5.127,5.408v.056a5.162,5.162,0,1,0,10.31.056Z" transform="translate(-160.935 -38.6)" fill="#0086cc"/>
        <path id="Path_10" data-name="Path 10" d="M340.9,39.3h6.254l4.563,12.789L356.28,39.3h6.141l-8.169,20.282h-5.183Z" transform="translate(-177.745 -38.906)" fill="#0086cc"/>
        <path id="Path_11" data-name="Path 11" d="M382.6,39.3h16.225v4.732h-10.7v3.042h9.69v4.451h-9.69v3.211h10.817v4.732H382.6Z" transform="translate(-195.952 -38.906)" fill="#0086cc"/>
        <path id="Path_12" data-name="Path 12" d="M416.7,39.3h9.521c3.1,0,5.239.789,6.592,2.2a6.194,6.194,0,0,1,1.8,4.676v.056a6.35,6.35,0,0,1-4.169,6.2l4.789,7.042h-6.479l-4-6.141h-2.423v6.085h-5.577V39.3Zm9.3,9.69c1.915,0,2.986-.9,2.986-2.366v-.056c0-1.577-1.127-2.366-3.042-2.366h-3.662v4.845H426Z" transform="translate(-210.841 -38.906)" fill="#0086cc"/>
        <path id="Path_13" data-name="Path 13" d="M467.7,39.3h7.775c7.211,0,11.38,4.169,11.38,9.972v.056c0,5.8-4.225,10.141-11.493,10.141H467.7Zm7.831,15.211c3.324,0,5.577-1.859,5.577-5.127v-.056c0-3.211-2.2-5.127-5.577-5.127h-2.254V54.455h2.254Z" transform="translate(-233.109 -38.906)" fill="#878787"/>
        <path id="Path_14" data-name="Path 14" d="M507,39.3h5.634V59.469H507Z" transform="translate(-250.268 -38.906)" fill="#878787"/>
        <path id="Path_15" data-name="Path 15" d="M523.5,39.3h9.521c3.1,0,5.239.789,6.592,2.2a6.194,6.194,0,0,1,1.8,4.676v.056a6.35,6.35,0,0,1-4.169,6.2l4.789,7.042h-6.423l-4.056-6.085h-2.423v6.085h-5.577V39.3Zm9.3,9.69c1.916,0,2.986-.9,2.986-2.366v-.056c0-1.577-1.127-2.366-3.042-2.366h-3.662v4.845H532.8Z" transform="translate(-257.472 -38.906)" fill="#878787"/>
        <path id="Path_16" data-name="Path 16" d="M560.256,39.3h16.169v4.732h-10.7v3.042h9.69v4.451h-9.69v3.211h10.817v4.732H560.2V39.3Z" transform="translate(-273.496 -38.906)" fill="#878787"/>
        <path id="Path_17" data-name="Path 17" d="M592.9,49.135v-.056A10.359,10.359,0,0,1,603.548,38.6a9.927,9.927,0,0,1,8.563,4.225l-4.225,3.268a5.3,5.3,0,0,0-4.394-2.366c-2.817,0-4.789,2.366-4.789,5.352v.056c0,3.042,1.972,5.408,4.789,5.408a5.581,5.581,0,0,0,4.563-2.423l4.225,2.986a10.134,10.134,0,0,1-8.958,4.563A10.389,10.389,0,0,1,592.9,49.135Z" transform="translate(-287.773 -38.6)" fill="#878787"/>
        <path id="Path_18" data-name="Path 18" d="M635.528,44.2H629.5V39.3h17.69v4.9h-6.028V59.469h-5.578V44.2Z" transform="translate(-303.754 -38.906)" fill="#878787"/>
      </g>
      <g id="Group_2" data-name="Group 2" transform="translate(64.22 19.279)">
        <path id="Path_19" data-name="Path 19" d="M131.473,38.6A10.552,10.552,0,0,0,120.6,49.079v.056a10.322,10.322,0,0,0,2.93,7.211c1.521-1.07,2.986-2.2,4.394-3.324a5.533,5.533,0,0,1-1.577-3.944v-.056a5.141,5.141,0,0,1,5.127-5.408,5.234,5.234,0,0,1,5.183,5.465v.056a5.141,5.141,0,0,1-5.127,5.408,5.311,5.311,0,0,1-1.69-.282,54.067,54.067,0,0,1-4.113,3.831,11.346,11.346,0,0,0,5.746,1.521,10.552,10.552,0,0,0,10.873-10.479v-.056A10.551,10.551,0,0,0,131.473,38.6Z" transform="translate(-120.6 -38.6)" fill="#3c3c3b"/>
      </g>
      <g id="Group_3" data-name="Group 3" transform="translate(13.285 2.715)">
        <path id="Path_20" data-name="Path 20" d="M36.337,45.932a10.19,10.19,0,0,1-1.634-2.7c-3.887-9.521,7.662-23.211,25.8-30.648A70.074,70.074,0,0,1,71.323,9.2a67.759,67.759,0,0,0-13.69,4c-18.817,7.718-30.7,21.972-26.648,31.887,3.831,9.3,20.507,11.38,38.2,5.07C54.647,54.777,41.182,53.087,36.337,45.932Z" transform="translate(-30.191 -9.2)" fill="url(#linear-gradient)"/>
      </g>
      <path id="Path_21" data-name="Path 21" d="M83.562,33.856a58.207,58.207,0,0,1-21.69,14.761c-19.549,8.056-38.986,5.859-43.437-4.845S26.266,17.8,45.816,9.744c9.127-3.775,18.254-5.3,25.8-4.732C62.435,3.377,50.492,4.9,38.492,9.8,16.464,18.87,2.661,36.053,7.619,48.222s26.93,14.592,48.958,5.521C68.576,48.786,78.1,41.462,83.562,33.856Z" transform="translate(-6.61 -4.381)" fill="url(#linear-gradient-2)"/>
      <path id="_x38_" d="M671.811,33.6a3.211,3.211,0,1,0,3.211,3.211A3.174,3.174,0,0,0,671.811,33.6Zm0,5.859a2.658,2.658,0,0,1-2.648-2.7,2.676,2.676,0,1,1,5.352,0A2.67,2.67,0,0,1,671.811,39.459Zm.9-2.254c-.113-.113-.225-.169-.338-.282a1.881,1.881,0,0,0,.676-.282.848.848,0,0,0,.225-.62.786.786,0,0,0-.169-.507.758.758,0,0,0-.394-.338,2.333,2.333,0,0,0-.789-.113h-1.408v3.324h.676V36.98h.113c.169,0,.282,0,.338.056.056,0,.113.056.225.113a3.593,3.593,0,0,1,.338.507l.507.732h.789l-.394-.676C672.938,37.487,672.825,37.262,672.713,37.206Zm-1.014-.732h-.507v-.845h1.014c.113,0,.169.056.282.113a.43.43,0,0,1,.113.282c0,.113,0,.169-.056.225l-.169.169C672.206,36.417,671.98,36.473,671.7,36.473Z" transform="translate(-295.648 -17.138)" fill="#0984c7"/>
    </g>
  </g>
</svg>
