<?xml version="1.0" encoding="utf-8"?>
<!-- Generator: Adobe Illustrator 19.2.0, SVG Export Plug-In . SVG Version: 6.00 Build 0)  -->
<svg version="1.1" id="Layer_1" xmlns="http://www.w3.org/2000/svg" xmlns:xlink="http://www.w3.org/1999/xlink" x="0px" y="0px"
	 viewBox="0 0 400 70" style="enable-background:new 0 0 400 70;" xml:space="preserve">
<style type="text/css">
	.st0{fill:#FF5722;}
	.st1{fill:#FFFFFF;}
	.st2{fill:#37474F;}
	.st3{fill:#FF7043;}
</style>
<g>
	<path class="st0" d="M10.2,48.6V30.3H5.9c-0.9,0-1.4-0.6-1.4-1.5v-2.7c0-0.9,0.5-1.4,1.4-1.4h4.4l1.3-8c0.2-1.3,1-2,2.2-2h1.5
		c1.3,0,2.1,0.8,2.1,2.2v7.9h9.6c0.9,0,1.4,0.5,1.4,1.4v2.7c0,0.9-0.5,1.5-1.4,1.5h-9.6V49c0,3.8,1.8,5.2,4.1,5.2
		c2.2,0,4.1-1.3,4.1-3.8c0-0.3,0-0.8-0.1-1.3c-0.1-1,0.3-1.6,1.3-1.6h3.2c0.8,0,1.5,0.4,1.6,1.3c0.3,1.2,0.3,2.5,0.3,2.6
		c0,5.2-3.8,9.1-10.5,9.1C15.7,60.5,10.2,57.6,10.2,48.6z"/>
	<path class="st0" d="M35.6,57.2v-30c0-1.6,1-2.5,2.6-2.5h2.1c1.6,0,2.5,0.9,2.5,2.5v5.3c1.2-5.6,5.2-8.6,9.4-8.6l1.5,0.1
		c1.5,0.2,1.7,1.4,1.7,2.8v2c0,1.7-0.7,2.4-1.9,2.2c-0.6-0.1-1.3-0.2-1.9-0.2c-2.5,0-8.8,1.3-8.8,15.6v10.8c0,1.6-0.9,2.5-2.5,2.5
		h-2.1C36.5,59.7,35.6,58.8,35.6,57.2z"/>
	<path class="st0" d="M58.5,44.5V27.2c0-1.6,0.9-2.5,2.5-2.5h2.1c1.6,0,2.6,0.9,2.6,2.5v17.2c0,7.1,3.2,9.8,6.9,9.8
		c3.6,0,10.9-2.5,10.9-13.1V27.2c0-1.6,0.9-2.5,2.5-2.5h2.1c1.6,0,2.6,0.9,2.6,2.5v30c0,1.6-1,2.5-2.6,2.5h-2.1
		c-1.6,0-2.5-0.9-2.5-2.5v-4.3c-1.5,4.9-6,7.6-11.7,7.6C64.1,60.5,58.5,55.4,58.5,44.5z"/>
	<path class="st0" d="M96.2,42.3c0-10.2,8-18.4,18.9-18.4c8.8,0,16.9,5.2,17.8,16.4c0.2,1.7-0.8,2.6-2.4,2.6h-27.1
		c-0.2,6.5,5.2,11.3,12.8,11.3c3.4,0,6.5-0.9,9.5-2.9c1.3-0.8,2.4-0.8,3.6,0.4l0.5,0.6c1.1,1.2,1.1,2.7-0.5,4
		c-4.1,3.3-8.7,4.3-13.2,4.3C103.8,60.5,96.2,52.3,96.2,42.3z M125.8,37.6c-1.8-6.2-6.7-7.6-10.6-7.6c-4.1,0-9.1,1.6-11.3,7.6H125.8
		z"/>
	<path class="st1" d="M139.6,48.6V30.3h-4.3c-0.9,0-1.4-0.6-1.4-1.5v-2.7c0-0.9,0.5-1.4,1.4-1.4h4.4l1.3-8c0.2-1.3,1-2,2.2-2h1.5
		c1.3,0,2.1,0.8,2.1,2.2v7.9h9.6c0.9,0,1.4,0.5,1.4,1.4v2.7c0,0.9-0.5,1.5-1.4,1.5h-9.6V49c0,3.8,1.8,5.2,4.1,5.2
		c2.2,0,4.1-1.3,4.1-3.8c0-0.3,0-0.8-0.1-1.3c-0.1-1,0.3-1.6,1.3-1.6h3.2c0.8,0,1.5,0.4,1.6,1.3c0.3,1.2,0.3,2.5,0.3,2.6
		c0,5.2-3.8,9.1-10.5,9.1C145.1,60.5,139.6,57.6,139.6,48.6z"/>
	<path class="st1" d="M165,57.2v-30c0-1.6,1-2.5,2.6-2.5h2.1c1.6,0,2.5,0.9,2.5,2.5v5.3c1.2-5.6,5.2-8.6,9.4-8.6l1.5,0.1
		c1.5,0.2,1.7,1.4,1.7,2.8v2c0,1.7-0.7,2.4-1.9,2.2c-0.6-0.1-1.3-0.2-1.9-0.2c-2.5,0-8.8,1.3-8.8,15.6v10.8c0,1.6-0.9,2.5-2.5,2.5
		h-2.1C165.9,59.7,165,58.8,165,57.2z"/>
	<path class="st1" d="M185.3,42.1c0-10.1,6.9-18.3,17.3-18.3c4.7,0,9.2,1.6,12.5,6.3v-3c0-1.6,1-2.5,2.6-2.5h2.1
		c1.6,0,2.5,0.9,2.5,2.5v30c0,1.6-0.9,2.5-2.5,2.5h-2.1c-1.6,0-2.6-0.9-2.6-2.5v-3c-3.3,4.7-7.8,6.3-12.5,6.3
		C192.2,60.5,185.3,52.2,185.3,42.1z M215.3,42.1c-0.1-6.9-4.8-12-11.7-12c-7.1,0-11.1,5.5-11.1,12c0,6.6,4.1,12,11.1,12
		C210.5,54.2,215.2,49.1,215.3,42.1z"/>
	<path class="st1" d="M239.5,57.7l-11.7-30.2c-0.6-1.7,0.1-2.9,2-2.9h2.3c1.5,0,2.4,0.6,2.9,2l9.3,25.1l9.3-25.1
		c0.6-1.4,1.5-2,2.9-2h2.3c1.9,0,2.6,1.1,2,2.9l-11.7,30.2c-0.6,1.3-1.5,2-3,2h-3.6C241.1,59.7,240.1,59,239.5,57.7z"/>
	<path class="st1" d="M262.3,42.3c0-10.2,8-18.4,18.9-18.4c8.8,0,16.9,5.2,17.8,16.4c0.2,1.7-0.8,2.6-2.4,2.6h-27.1
		c-0.2,6.5,5.2,11.3,12.8,11.3c3.4,0,6.5-0.9,9.5-2.9c1.3-0.8,2.4-0.8,3.6,0.4l0.5,0.6c1.1,1.2,1.1,2.7-0.5,4
		c-4.1,3.3-8.7,4.3-13.2,4.3C269.9,60.5,262.3,52.3,262.3,42.3z M291.9,37.6c-1.8-6.2-6.7-7.6-10.6-7.6c-4.1,0-9.1,1.6-11.3,7.6
		H291.9z"/>
	<path class="st1" d="M304.5,57.2V11.6c0-1.6,1-2.5,2.6-2.5h2.1c1.6,0,2.5,0.9,2.5,2.5v45.5c0,1.6-0.9,2.5-2.5,2.5H307
		C305.4,59.7,304.5,58.8,304.5,57.2z"/>
	<path class="st1" d="M320.2,57.2V11.6c0-1.6,1-2.5,2.6-2.5h2.1c1.6,0,2.5,0.9,2.5,2.5v45.5c0,1.6-0.9,2.5-2.5,2.5h-2.1
		C321.2,59.7,320.2,58.8,320.2,57.2z"/>
	<path class="st1" d="M333.1,42.3c0-10.2,8-18.4,18.9-18.4c8.8,0,16.9,5.2,17.8,16.4c0.2,1.7-0.8,2.6-2.4,2.6h-27.1
		c-0.2,6.5,5.2,11.3,12.8,11.3c3.4,0,6.5-0.9,9.5-2.9c1.3-0.8,2.4-0.8,3.6,0.4l0.5,0.6c1.1,1.2,1.1,2.7-0.5,4
		c-4.1,3.3-8.7,4.3-13.2,4.3C340.7,60.5,333.1,52.3,333.1,42.3z M362.7,37.6c-1.8-6.2-6.7-7.6-10.6-7.6c-4.1,0-9.1,1.6-11.3,7.6
		H362.7z"/>
	<path class="st1" d="M375,57.2v-30c0-1.6,1-2.5,2.6-2.5h2.1c1.6,0,2.5,0.9,2.5,2.5v5.3c1.2-5.6,5.2-8.6,9.4-8.6l1.5,0.1
		c1.5,0.2,1.7,1.4,1.7,2.8v2c0,1.7-0.7,2.4-1.9,2.2c-0.6-0.1-1.3-0.2-1.9-0.2c-2.5,0-8.8,1.3-8.8,15.6v10.8c0,1.6-0.9,2.5-2.5,2.5
		h-2.1C376,59.7,375,58.8,375,57.2z"/>
</g>
<g>
	<g>
		<path class="st0" d="M208.8,51c-0.1,0-0.2,0-0.3,0c-0.6-0.1-1.1-0.6-1.2-1.3l-1.1-10.2c0,0-9.9,0.3-9.9,0.3c-0.6,0-1.2-0.4-1.4-1
			c-0.2-0.6,0-1.3,0.6-1.7l28.2-18.7c0.2-0.2,0.5-0.2,0.8-0.2c0.4,0,0.7,0.1,1,0.4c0.5,0.4,0.6,1.2,0.3,1.8l-15.8,30
			C209.8,50.7,209.3,51,208.8,51z"/>
		<path class="st2" d="M224.5,19.6L224.5,19.6 M224.5,19.6l-15.8,30L207.5,38l-11.2,0.3L224.5,19.6 M224.5,16.7c0,0-0.1,0-0.1,0
			c-0.6,0-1.1,0.2-1.5,0.5l-28.2,18.7c-1.1,0.7-1.6,2.1-1.2,3.3c0.4,1.2,1.5,2,2.8,2c0,0,0.1,0,0.1,0l8.5-0.3l0.9,8.9
			c0.1,1.3,1.1,2.3,2.4,2.6c0.2,0,0.4,0.1,0.5,0.1c1.1,0,2.1-0.6,2.6-1.6L227.1,21c0.2-0.4,0.4-0.9,0.4-1.5
			C227.4,18,226.1,16.7,224.5,16.7C224.5,16.7,224.5,16.7,224.5,16.7L224.5,16.7z M224.5,22.5L224.5,22.5L224.5,22.5L224.5,22.5z"/>
	</g>
	<polyline class="st3" points="224.5,19.6 196.3,38.3 207.5,38 	"/>
</g>
</svg>
