<?xml version="1.0" standalone="no"?>
<!DOCTYPE svg PUBLIC "-//W3C//DTD SVG 20010904//EN"
 "http://www.w3.org/TR/2001/REC-SVG-20010904/DTD/svg10.dtd">
<svg version="1.0" xmlns="http://www.w3.org/2000/svg"
 width="700.000000pt" height="700.000000pt" viewBox="0 0 700.000000 700.000000"
 preserveAspectRatio="xMidYMid meet">
<metadata>
Created by potrace 1.14, written by Peter Selinger 2001-2017
</metadata>
<g transform="translate(0.000000,700.000000) scale(0.100000,-0.100000)"
fill="#000000" stroke="none">
<path d="M3499 4474 c-321 -427 -588 -785 -593 -794 -6 -14 18 -51 108 -169
63 -83 123 -162 132 -176 9 -14 20 -25 24 -25 4 0 135 170 291 378 156 207
286 379 289 382 3 3 79 103 169 224 134 179 165 216 176 205 7 -8 115 -151
241 -319 125 -168 232 -309 236 -315 9 -10 72 -95 572 -760 136 -181 256 -341
267 -355 83 -104 413 -552 412 -557 -2 -4 -533 -6 -1180 -7 l-1178 0 -177 235
c-97 128 -185 245 -195 258 -32 43 -273 365 -291 388 -9 13 -183 245 -387 518
-203 272 -372 494 -375 494 -3 0 -398 -524 -878 -1164 l-872 -1165 3210 0
3210 0 -177 237 c-98 131 -182 242 -186 248 -7 8 -1857 2475 -1915 2553 -39
53 -344 457 -346 460 -2 1 -266 -347 -587 -774z m-1354 -1260 c55 -75 105
-141 110 -147 6 -7 113 -149 238 -317 126 -168 238 -318 250 -333 90 -118 165
-222 161 -226 -6 -6 -1714 -7 -1724 -1 -6 4 697 956 783 1060 7 8 26 34 42 57
17 24 32 42 35 42 3 0 50 -61 105 -135z"/>
</g>
</svg>
